<mxfile host="app.diagrams.net" modified="2024-07-01T03:03:00.049Z" agent="Mozilla/5.0 (Windows NT 10.0; Win64; x64) AppleWebKit/537.36 (KHTML, like Gecko) Chrome/126.0.0.0 Safari/537.36" etag="ewiJ_OMidkJbDv5rR3O4" version="24.6.4" type="gitlab">
  <diagram name="Page-1" id="CtHhPpYxBfERY2EWoS9T">
    <mxGraphModel dx="989" dy="509" grid="1" gridSize="10" guides="1" tooltips="1" connect="1" arrows="1" fold="1" page="1" pageScale="1" pageWidth="850" pageHeight="1100" math="0" shadow="0">
      <root>
        <mxCell id="0" />
        <mxCell id="1" parent="0" />
        <mxCell id="_97ps5fexnOzNsevoQom-2" value="&lt;font style=&quot;font-size: 18px;&quot;&gt;Service Management and Orchestration (SMO)&lt;/font&gt;" style="rounded=0;whiteSpace=wrap;html=1;fontStyle=1" parent="1" vertex="1">
          <mxGeometry x="160" y="40" width="480" height="40" as="geometry" />
        </mxCell>
        <mxCell id="_97ps5fexnOzNsevoQom-3" value="" style="rounded=0;whiteSpace=wrap;html=1;" parent="1" vertex="1">
          <mxGeometry x="160" y="80" width="480" height="80" as="geometry" />
        </mxCell>
        <mxCell id="_97ps5fexnOzNsevoQom-4" value="Inventory" style="rounded=1;whiteSpace=wrap;html=1;" parent="1" vertex="1">
          <mxGeometry x="170" y="90" width="100" height="30" as="geometry" />
        </mxCell>
        <mxCell id="_97ps5fexnOzNsevoQom-8" value="Data Analytics" style="rounded=1;whiteSpace=wrap;html=1;" parent="1" vertex="1">
          <mxGeometry x="290" y="90" width="100" height="30" as="geometry" />
        </mxCell>
        <mxCell id="_97ps5fexnOzNsevoQom-9" value="AI/ML Models" style="rounded=1;whiteSpace=wrap;html=1;" parent="1" vertex="1">
          <mxGeometry x="410" y="90" width="100" height="30" as="geometry" />
        </mxCell>
        <mxCell id="_97ps5fexnOzNsevoQom-10" value="rApps" style="rounded=1;whiteSpace=wrap;html=1;" parent="1" vertex="1">
          <mxGeometry x="530" y="90" width="100" height="30" as="geometry" />
        </mxCell>
        <mxCell id="_97ps5fexnOzNsevoQom-11" value="&lt;font style=&quot;font-size: 14px;&quot;&gt;Non Real Time Radio Access Network Intelligent Controller (Non-RT RIC)&lt;/font&gt;" style="text;html=1;align=center;verticalAlign=middle;whiteSpace=wrap;rounded=0;" parent="1" vertex="1">
          <mxGeometry x="160" y="120" width="480" height="40" as="geometry" />
        </mxCell>
        <mxCell id="_97ps5fexnOzNsevoQom-17" value="" style="rounded=0;whiteSpace=wrap;html=1;" parent="1" vertex="1">
          <mxGeometry x="160" y="240" width="480" height="80" as="geometry" />
        </mxCell>
        <mxCell id="_97ps5fexnOzNsevoQom-12" value="Interference Management" style="rounded=1;whiteSpace=wrap;html=1;" parent="1" vertex="1">
          <mxGeometry x="170" y="250" width="100" height="30" as="geometry" />
        </mxCell>
        <mxCell id="_97ps5fexnOzNsevoQom-13" value="Mobility Management" style="rounded=1;whiteSpace=wrap;html=1;" parent="1" vertex="1">
          <mxGeometry x="290" y="250" width="100" height="30" as="geometry" />
        </mxCell>
        <mxCell id="_97ps5fexnOzNsevoQom-14" value="Trained Models" style="rounded=1;whiteSpace=wrap;html=1;" parent="1" vertex="1">
          <mxGeometry x="410" y="250" width="100" height="30" as="geometry" />
        </mxCell>
        <mxCell id="_97ps5fexnOzNsevoQom-15" value="xApps" style="rounded=1;whiteSpace=wrap;html=1;" parent="1" vertex="1">
          <mxGeometry x="530" y="250" width="100" height="30" as="geometry" />
        </mxCell>
        <mxCell id="_97ps5fexnOzNsevoQom-16" value="&lt;font style=&quot;font-size: 14px;&quot;&gt;Near Real Time Radio Access Network Intelligent Controller (Near-RT RIC)&lt;/font&gt;" style="text;html=1;align=center;verticalAlign=middle;whiteSpace=wrap;rounded=0;" parent="1" vertex="1">
          <mxGeometry x="160" y="280" width="480" height="40" as="geometry" />
        </mxCell>
        <mxCell id="_97ps5fexnOzNsevoQom-20" value="" style="endArrow=classic;startArrow=classic;html=1;rounded=0;entryX=0.5;entryY=1;entryDx=0;entryDy=0;exitX=0.5;exitY=0;exitDx=0;exitDy=0;" parent="1" source="_97ps5fexnOzNsevoQom-17" target="_97ps5fexnOzNsevoQom-11" edge="1">
          <mxGeometry width="50" height="50" relative="1" as="geometry">
            <mxPoint x="450" y="210" as="sourcePoint" />
            <mxPoint x="450" y="250" as="targetPoint" />
          </mxGeometry>
        </mxCell>
        <mxCell id="_97ps5fexnOzNsevoQom-24" value="" style="rounded=0;whiteSpace=wrap;html=1;" parent="1" vertex="1">
          <mxGeometry x="460" y="360" width="120" height="80" as="geometry" />
        </mxCell>
        <mxCell id="_97ps5fexnOzNsevoQom-25" value="" style="rounded=0;whiteSpace=wrap;html=1;" parent="1" vertex="1">
          <mxGeometry x="460" y="480" width="120" height="80" as="geometry" />
        </mxCell>
        <mxCell id="_97ps5fexnOzNsevoQom-26" value="" style="rounded=0;whiteSpace=wrap;html=1;" parent="1" vertex="1">
          <mxGeometry x="260" y="480" width="120" height="80" as="geometry" />
        </mxCell>
        <mxCell id="_97ps5fexnOzNsevoQom-27" value="" style="rounded=0;whiteSpace=wrap;html=1;" parent="1" vertex="1">
          <mxGeometry x="260" y="600" width="120" height="80" as="geometry" />
        </mxCell>
        <mxCell id="_97ps5fexnOzNsevoQom-28" value="Antenna" style="rounded=0;whiteSpace=wrap;html=1;" parent="1" vertex="1">
          <mxGeometry x="610" y="600" width="80" height="80" as="geometry" />
        </mxCell>
        <mxCell id="_97ps5fexnOzNsevoQom-29" value="User End (UE)" style="rounded=0;whiteSpace=wrap;html=1;" parent="1" vertex="1">
          <mxGeometry x="770" y="600" width="80" height="40" as="geometry" />
        </mxCell>
        <mxCell id="_97ps5fexnOzNsevoQom-30" value="User End (UE)" style="rounded=0;whiteSpace=wrap;html=1;" parent="1" vertex="1">
          <mxGeometry x="770" y="680" width="80" height="40" as="geometry" />
        </mxCell>
        <mxCell id="_97ps5fexnOzNsevoQom-31" value="User End (UE)" style="rounded=0;whiteSpace=wrap;html=1;" parent="1" vertex="1">
          <mxGeometry x="770" y="760" width="80" height="40" as="geometry" />
        </mxCell>
        <mxCell id="_97ps5fexnOzNsevoQom-32" value="" style="endArrow=classic;startArrow=classic;html=1;rounded=0;entryX=0;entryY=0.5;entryDx=0;entryDy=0;exitX=1;exitY=0.25;exitDx=0;exitDy=0;" parent="1" source="_97ps5fexnOzNsevoQom-28" target="_97ps5fexnOzNsevoQom-29" edge="1">
          <mxGeometry width="50" height="50" relative="1" as="geometry">
            <mxPoint x="610" y="600" as="sourcePoint" />
            <mxPoint x="660" y="550" as="targetPoint" />
          </mxGeometry>
        </mxCell>
        <mxCell id="_97ps5fexnOzNsevoQom-33" value="" style="endArrow=classic;startArrow=classic;html=1;rounded=0;entryX=0;entryY=0.5;entryDx=0;entryDy=0;exitX=1;exitY=0.5;exitDx=0;exitDy=0;" parent="1" source="_97ps5fexnOzNsevoQom-28" target="_97ps5fexnOzNsevoQom-30" edge="1">
          <mxGeometry width="50" height="50" relative="1" as="geometry">
            <mxPoint x="700" y="630" as="sourcePoint" />
            <mxPoint x="780" y="630" as="targetPoint" />
            <Array as="points">
              <mxPoint x="730" y="640" />
              <mxPoint x="730" y="700" />
            </Array>
          </mxGeometry>
        </mxCell>
        <mxCell id="_97ps5fexnOzNsevoQom-34" value="" style="endArrow=classic;startArrow=classic;html=1;rounded=0;entryX=0;entryY=0.5;entryDx=0;entryDy=0;exitX=1;exitY=0.75;exitDx=0;exitDy=0;" parent="1" source="_97ps5fexnOzNsevoQom-28" target="_97ps5fexnOzNsevoQom-31" edge="1">
          <mxGeometry width="50" height="50" relative="1" as="geometry">
            <mxPoint x="710" y="640" as="sourcePoint" />
            <mxPoint x="790" y="640" as="targetPoint" />
            <Array as="points">
              <mxPoint x="710" y="660" />
              <mxPoint x="710" y="780" />
            </Array>
          </mxGeometry>
        </mxCell>
        <mxCell id="_97ps5fexnOzNsevoQom-35" value="" style="endArrow=classic;startArrow=classic;html=1;rounded=0;entryX=0;entryY=0.5;entryDx=0;entryDy=0;exitX=1;exitY=0.5;exitDx=0;exitDy=0;" parent="1" source="_97ps5fexnOzNsevoQom-27" target="_97ps5fexnOzNsevoQom-28" edge="1">
          <mxGeometry width="50" height="50" relative="1" as="geometry">
            <mxPoint x="510" y="630" as="sourcePoint" />
            <mxPoint x="590" y="630" as="targetPoint" />
          </mxGeometry>
        </mxCell>
        <mxCell id="_97ps5fexnOzNsevoQom-36" value="" style="endArrow=classic;startArrow=classic;html=1;rounded=0;entryX=0;entryY=0.5;entryDx=0;entryDy=0;exitX=1;exitY=0.5;exitDx=0;exitDy=0;" parent="1" source="_97ps5fexnOzNsevoQom-26" target="_97ps5fexnOzNsevoQom-25" edge="1">
          <mxGeometry width="50" height="50" relative="1" as="geometry">
            <mxPoint x="390" y="650" as="sourcePoint" />
            <mxPoint x="430" y="650" as="targetPoint" />
          </mxGeometry>
        </mxCell>
        <mxCell id="_97ps5fexnOzNsevoQom-37" value="" style="endArrow=classic;startArrow=classic;html=1;rounded=0;entryX=0.5;entryY=1;entryDx=0;entryDy=0;exitX=0.5;exitY=0;exitDx=0;exitDy=0;" parent="1" source="_97ps5fexnOzNsevoQom-27" target="_97ps5fexnOzNsevoQom-26" edge="1">
          <mxGeometry width="50" height="50" relative="1" as="geometry">
            <mxPoint x="390" y="530" as="sourcePoint" />
            <mxPoint x="470" y="530" as="targetPoint" />
          </mxGeometry>
        </mxCell>
        <mxCell id="_97ps5fexnOzNsevoQom-38" value="" style="endArrow=classic;startArrow=classic;html=1;rounded=0;entryX=0.5;entryY=1;entryDx=0;entryDy=0;" parent="1" source="_97ps5fexnOzNsevoQom-25" target="_97ps5fexnOzNsevoQom-24" edge="1">
          <mxGeometry width="50" height="50" relative="1" as="geometry">
            <mxPoint x="400" y="540" as="sourcePoint" />
            <mxPoint x="480" y="540" as="targetPoint" />
          </mxGeometry>
        </mxCell>
        <mxCell id="_97ps5fexnOzNsevoQom-39" value="" style="endArrow=classic;startArrow=classic;html=1;rounded=0;exitX=0.5;exitY=0;exitDx=0;exitDy=0;" parent="1" source="_97ps5fexnOzNsevoQom-24" edge="1">
          <mxGeometry width="50" height="50" relative="1" as="geometry">
            <mxPoint x="510" y="490" as="sourcePoint" />
            <mxPoint x="520" y="320" as="targetPoint" />
          </mxGeometry>
        </mxCell>
        <mxCell id="_97ps5fexnOzNsevoQom-41" value="" style="endArrow=classic;startArrow=classic;html=1;rounded=0;entryX=1;entryY=0.75;entryDx=0;entryDy=0;exitX=1;exitY=0.5;exitDx=0;exitDy=0;" parent="1" source="_97ps5fexnOzNsevoQom-24" target="_97ps5fexnOzNsevoQom-2" edge="1">
          <mxGeometry width="50" height="50" relative="1" as="geometry">
            <mxPoint x="400" y="300" as="sourcePoint" />
            <mxPoint x="450" y="250" as="targetPoint" />
            <Array as="points">
              <mxPoint x="730" y="400" />
              <mxPoint x="730" y="70" />
            </Array>
          </mxGeometry>
        </mxCell>
        <mxCell id="_97ps5fexnOzNsevoQom-42" value="" style="endArrow=classic;startArrow=classic;html=1;rounded=0;entryX=1;entryY=0.5;entryDx=0;entryDy=0;exitX=1;exitY=0;exitDx=0;exitDy=0;" parent="1" source="_97ps5fexnOzNsevoQom-16" target="_97ps5fexnOzNsevoQom-2" edge="1">
          <mxGeometry width="50" height="50" relative="1" as="geometry">
            <mxPoint x="730" y="280" as="sourcePoint" />
            <mxPoint x="650" y="80" as="targetPoint" />
            <Array as="points">
              <mxPoint x="690" y="280" />
              <mxPoint x="690" y="60" />
            </Array>
          </mxGeometry>
        </mxCell>
        <mxCell id="_97ps5fexnOzNsevoQom-43" value="" style="endArrow=classic;startArrow=classic;html=1;rounded=0;entryX=1;entryY=0.5;entryDx=0;entryDy=0;exitX=1;exitY=0.25;exitDx=0;exitDy=0;" parent="1" source="_97ps5fexnOzNsevoQom-2" target="_97ps5fexnOzNsevoQom-25" edge="1">
          <mxGeometry width="50" height="50" relative="1" as="geometry">
            <mxPoint x="770" y="180" as="sourcePoint" />
            <mxPoint x="450" y="350" as="targetPoint" />
            <Array as="points">
              <mxPoint x="760" y="50" />
              <mxPoint x="760" y="520" />
            </Array>
          </mxGeometry>
        </mxCell>
        <mxCell id="_97ps5fexnOzNsevoQom-44" value="" style="endArrow=classic;startArrow=classic;html=1;rounded=0;entryX=0;entryY=0.5;entryDx=0;entryDy=0;exitX=0;exitY=0.5;exitDx=0;exitDy=0;" parent="1" source="_97ps5fexnOzNsevoQom-26" target="_97ps5fexnOzNsevoQom-2" edge="1">
          <mxGeometry width="50" height="50" relative="1" as="geometry">
            <mxPoint x="400" y="300" as="sourcePoint" />
            <mxPoint x="450" y="250" as="targetPoint" />
            <Array as="points">
              <mxPoint x="80" y="520" />
              <mxPoint x="80" y="60" />
            </Array>
          </mxGeometry>
        </mxCell>
        <mxCell id="Y6crWImZblkXP5vt9JMl-3" value="O-RU" style="text;html=1;align=center;verticalAlign=middle;whiteSpace=wrap;rounded=0;" vertex="1" parent="1">
          <mxGeometry x="290" y="605" width="60" height="30" as="geometry" />
        </mxCell>
        <mxCell id="Y6crWImZblkXP5vt9JMl-4" value="RLC" style="rounded=1;whiteSpace=wrap;html=1;" vertex="1" parent="1">
          <mxGeometry x="267.5" y="490" width="45" height="30" as="geometry" />
        </mxCell>
        <mxCell id="Y6crWImZblkXP5vt9JMl-5" value="MAC" style="rounded=1;whiteSpace=wrap;html=1;" vertex="1" parent="1">
          <mxGeometry x="267.5" y="525" width="45" height="30" as="geometry" />
        </mxCell>
        <mxCell id="Y6crWImZblkXP5vt9JMl-7" value="O-DU" style="text;html=1;align=center;verticalAlign=middle;whiteSpace=wrap;rounded=0;" vertex="1" parent="1">
          <mxGeometry x="317.5" y="485" width="60" height="30" as="geometry" />
        </mxCell>
        <mxCell id="Y6crWImZblkXP5vt9JMl-8" value="O-CU-UP" style="text;html=1;align=center;verticalAlign=middle;whiteSpace=wrap;rounded=0;" vertex="1" parent="1">
          <mxGeometry x="490" y="485" width="60" height="30" as="geometry" />
        </mxCell>
        <mxCell id="Y6crWImZblkXP5vt9JMl-9" value="O-CU-CP" style="text;html=1;align=center;verticalAlign=middle;whiteSpace=wrap;rounded=0;" vertex="1" parent="1">
          <mxGeometry x="490" y="370" width="60" height="30" as="geometry" />
        </mxCell>
        <mxCell id="Y6crWImZblkXP5vt9JMl-10" value="RRC" style="rounded=1;whiteSpace=wrap;html=1;" vertex="1" parent="1">
          <mxGeometry x="465" y="400" width="45" height="30" as="geometry" />
        </mxCell>
        <mxCell id="Y6crWImZblkXP5vt9JMl-11" value="PDCP-C" style="rounded=1;whiteSpace=wrap;html=1;" vertex="1" parent="1">
          <mxGeometry x="520" y="400" width="55" height="30" as="geometry" />
        </mxCell>
        <mxCell id="Y6crWImZblkXP5vt9JMl-12" value="SDAP" style="rounded=1;whiteSpace=wrap;html=1;" vertex="1" parent="1">
          <mxGeometry x="465" y="520" width="45" height="30" as="geometry" />
        </mxCell>
        <mxCell id="Y6crWImZblkXP5vt9JMl-13" value="PDCP-U" style="rounded=1;whiteSpace=wrap;html=1;" vertex="1" parent="1">
          <mxGeometry x="520" y="520" width="55" height="30" as="geometry" />
        </mxCell>
        <mxCell id="Y6crWImZblkXP5vt9JMl-14" value="PHY-H" style="rounded=1;whiteSpace=wrap;html=1;" vertex="1" parent="1">
          <mxGeometry x="327.5" y="525" width="45" height="30" as="geometry" />
        </mxCell>
        <mxCell id="Y6crWImZblkXP5vt9JMl-15" value="RF" style="rounded=1;whiteSpace=wrap;html=1;" vertex="1" parent="1">
          <mxGeometry x="327.5" y="640" width="45" height="30" as="geometry" />
        </mxCell>
        <mxCell id="Y6crWImZblkXP5vt9JMl-16" value="PHY-L" style="rounded=1;whiteSpace=wrap;html=1;" vertex="1" parent="1">
          <mxGeometry x="267.5" y="640" width="45" height="30" as="geometry" />
        </mxCell>
        <mxCell id="Y6crWImZblkXP5vt9JMl-18" value="" style="endArrow=none;html=1;rounded=0;dashed=1;" edge="1" parent="1">
          <mxGeometry width="50" height="50" relative="1" as="geometry">
            <mxPoint x="200" y="350" as="sourcePoint" />
            <mxPoint x="200" y="690" as="targetPoint" />
          </mxGeometry>
        </mxCell>
        <mxCell id="Y6crWImZblkXP5vt9JMl-19" value="" style="endArrow=none;html=1;rounded=0;dashed=1;" edge="1" parent="1">
          <mxGeometry width="50" height="50" relative="1" as="geometry">
            <mxPoint x="600" y="690" as="sourcePoint" />
            <mxPoint x="200" y="690" as="targetPoint" />
          </mxGeometry>
        </mxCell>
        <mxCell id="Y6crWImZblkXP5vt9JMl-20" value="" style="endArrow=none;html=1;rounded=0;dashed=1;" edge="1" parent="1">
          <mxGeometry width="50" height="50" relative="1" as="geometry">
            <mxPoint x="600" y="350" as="sourcePoint" />
            <mxPoint x="600" y="690" as="targetPoint" />
          </mxGeometry>
        </mxCell>
        <mxCell id="Y6crWImZblkXP5vt9JMl-21" value="" style="endArrow=none;html=1;rounded=0;dashed=1;" edge="1" parent="1">
          <mxGeometry width="50" height="50" relative="1" as="geometry">
            <mxPoint x="200" y="350" as="sourcePoint" />
            <mxPoint x="600" y="350" as="targetPoint" />
          </mxGeometry>
        </mxCell>
        <mxCell id="Y6crWImZblkXP5vt9JMl-22" value="Open Air Interface (OAI)" style="text;html=1;align=center;verticalAlign=middle;whiteSpace=wrap;rounded=0;fontStyle=1" vertex="1" parent="1">
          <mxGeometry x="210" y="360" width="140" height="30" as="geometry" />
        </mxCell>
        <mxCell id="Y6crWImZblkXP5vt9JMl-25" value="Text" style="text;html=1;align=center;verticalAlign=middle;whiteSpace=wrap;rounded=0;" vertex="1" parent="1">
          <mxGeometry x="640" y="535" width="60" height="30" as="geometry" />
        </mxCell>
      </root>
    </mxGraphModel>
  </diagram>
</mxfile>
